# xmcd
#
# Track frame offsets:
#	150
#	17281
#	33841
#	56291
#	74576
#	93543
#	114789
#	133478
#	149125
#	170717
#	186835
#	204042
#	224286
#	241189
#	260880
#
# Disc length: 3714 seconds
#
# Revision: 3
# Processed by: cddbd v1.5.2PL0 Copyright (c) Steve Scherf et al.
# Submitted via: audiograbber 1.83.01
#
DISCID=dd0e800f
DTITLE=Usher - Versus
DYEAR=2010
DGENRE=Soul
TTITLE0=Love 'em all
TTITLE1=DJ got us fallin' in love (feat. Pitbull)
TTITLE2=Hot tottie (feat. Jay-Z)
TTITLE3=Lay you down
TTITLE4=Lingerie
TTITLE5=There goes my baby
TTITLE6=Get in my car (feat. Bun B)
TTITLE7=Somebody to love remix (feat. Justin Bieber)
TTITLE8=Stranger
TTITLE9=Dirty dancer (feat. Enrique Iglesias)
TTITLE10=More
TTITLE11=OMG (feat. will.i.am)
TTITLE12=Hey daddy (Daddy's home)
TTITLE13=Papers
TTITLE14=Lil freak (feat. Nicki Minaj)
EXTD=
EXTT0=
EXTT1=
EXTT2=
EXTT3=
EXTT4=
EXTT5=
EXTT6=
EXTT7=
EXTT8=
EXTT9=
EXTT10=
EXTT11=
EXTT12=
EXTT13=
EXTT14=
PLAYORDER=
